<svg viewBox="-63 0 512 512.00203" xmlns="http://www.w3.org/2000/svg">
	<path d="m155.703125 409.210938c-12.878906 4.089843-26.882813 3.871093-39.746094-.808594-12.863281-4.683594-23.726562-13.515625-30.964843-24.925782-13.503907-.5625-26.585938-5.558593-37.070313-14.355468-1.324219-1.109375-2.597656-2.273438-3.8125-3.484375l-33.445313 69.992187c-2.511718 5.253906-1.796874 11.480469 1.835938 16.03125 3.632812 4.550782 9.546875 6.625 15.230469 5.335938l67.039062-15.203125 30.285157 61.710937c2.554687 5.203125 7.847656 8.5 13.636718 8.5h.082032c5.824218-.03125 11.117187-3.390625 13.625-8.644531l38.878906-81.359375c-12.953125-.433594-25.40625-4.953125-35.574219-12.789062zm0 0"/><path d="m338.734375 369.121094c-10.484375 8.796875-23.570313 13.789062-37.070313 14.351562-7.238281 11.414063-18.105468 20.246094-30.96875 24.925782-12.859374 4.683593-26.863281 4.902343-39.742187.8125-10.167969 7.835937-22.621094 12.355468-35.574219 12.789062l38.875 81.359375c2.511719 5.253906 7.804688 8.609375 13.628906 8.640625h.078126c5.792968 0 11.082031-3.292969 13.636718-8.496094l30.289063-61.710937 67.039062 15.199219c5.679688 1.292968 11.59375-.78125 15.226563-5.332032 3.636718-4.550781 4.347656-10.777344 1.839844-16.03125l-33.449219-69.992187c-1.214844 1.210937-2.484375 2.371093-3.808594 3.484375zm0 0"/><path d="m380.027344 186.480469c5.445312-6.972657 7.6875-15.960938 6.15625-24.65625-1.535156-8.695313-6.714844-16.375-14.214844-21.066407-5.910156-3.695312-8.550781-10.9375-6.394531-17.570312 2.730469-8.414062 1.765625-17.625-2.652344-25.273438-4.414063-7.648437-11.910156-13.089843-20.5625-14.933593-6.816406-1.449219-11.773437-7.355469-12.019531-14.320313-.3125-8.84375-4.371094-17.167968-11.132813-22.84375-6.765625-5.679687-15.667969-8.226562-24.433593-7-6.898438.972656-13.578126-2.886718-16.191407-9.347656-3.316406-8.203125-9.976562-14.640625-18.277343-17.660156-8.296876-3.019532-17.539063-2.371094-25.347657 1.78125-6.15625 3.269531-13.75 1.929687-18.417969-3.25-5.917968-6.570313-14.378906-10.339844-23.210937-10.339844s-17.292969 3.769531-23.210937 10.339844c-4.667969 5.179687-12.261719 6.519531-18.417969 3.25-7.808594-4.152344-17.050781-4.800782-25.347657-1.78125-8.300781 3.019531-14.960937 9.457031-18.277343 17.660156-2.613281 6.460938-9.289063 10.320312-16.191407 9.347656-8.761718-1.226562-17.667968 1.320313-24.433593 7-6.765625 5.675782-10.820313 14-11.132813 22.84375-.246094 6.964844-5.199218 12.871094-12.019531 14.324219-8.652344 1.839844-16.148437 7.28125-20.5625 14.929687-4.417969 7.648438-5.382813 16.859376-2.652344 25.273438 2.152344 6.632812-.484375 13.875-6.394531 17.574219-7.5 4.6875-12.679688 12.367187-14.214844 21.0625-1.53125 8.699219.710938 17.683593 6.15625 24.660156 4.289063 5.492187 4.289063 13.203125 0 18.695313-5.445312 6.972656-7.6875 15.960937-6.15625 24.65625 1.535156 8.699218 6.714844 16.375 14.214844 21.066406 5.910156 3.695312 8.550781 10.9375 6.398438 17.570312-2.734376 8.414063-1.765626 17.625 2.648437 25.273438 4.417969 7.648437 11.910156 13.089844 20.5625 14.933594 6.820313 1.449218 11.773437 7.355468 12.019531 14.324218.3125 8.839844 4.371094 17.167969 11.136719 22.84375 6.765625 5.675782 15.671875 8.226563 24.429687 6.996094 6.902344-.964844 13.578126 2.886719 16.191407 9.351562 3.316406 8.199219 9.980469 14.636719 18.277343 17.65625 8.300782 3.019532 17.539063 2.371094 25.351563-1.777343 2.25-1.199219 4.699219-1.777344 7.121094-1.777344 4.199219 0 8.332031 1.738281 11.292969 5.023437 5.921874 6.574219 14.382812 10.339844 23.210937 10.339844 8.832031 0 17.292969-3.769531 23.214844-10.339844 4.664062-5.179687 12.257812-6.515624 18.414062-3.246093 7.8125 4.152343 17.050781 4.796875 25.351563 1.777343 8.296875-3.019531 14.957031-9.457031 18.273437-17.65625 2.613281-6.464843 9.292969-10.320312 16.195313-9.351562 8.757812 1.226562 17.664062-1.320312 24.429687-6.996094 6.765625-5.675781 10.824219-14.003906 11.136719-22.84375.242188-6.96875 5.199219-12.871094 12.015625-14.324218 8.652344-1.84375 16.148437-7.285157 20.566406-14.933594 4.414063-7.648438 5.378907-16.859375 2.648438-25.273438-2.152344-6.628906.484375-13.875 6.394531-17.570312 7.503906-4.691406 12.683594-12.367188 14.21875-21.0625 1.53125-8.699219-.710938-17.683594-6.15625-24.660156-4.292969-5.496094-4.292969-13.203126-.003906-18.699219zm-186.699219 142.457031c-73.394531 0-133.109375-59.710938-133.109375-133.105469 0-73.398437 59.714844-133.109375 133.109375-133.109375s133.105469 59.710938 133.105469 133.109375c0 73.394531-59.710938 133.105469-133.105469 133.105469zm0 0"/>
	<path d="m193.328125 93.105469c-56.644531 0-102.726563 46.082031-102.726563 102.726562 0 56.640625 46.082032 102.722657 102.726563 102.722657s102.722656-46.082032 102.722656-102.722657c0-56.644531-46.082031-102.726562-102.722656-102.726562zm-64.164063 83.882812c5.933594-5.933593 15.550782-5.933593 21.484376 0l30.273437 30.273438 55.085937-55.085938c5.933594-5.933593 15.550782-5.933593 21.484376 0 5.933593 5.929688 5.933593 15.550781 0 21.480469l-65.828126 65.832031c-2.847656 2.847657-6.714843 4.449219-10.742187 4.449219s-7.890625-1.601562-10.742187-4.449219l-41.011719-41.015625c-5.9375-5.933594-5.9375-15.550781-.003907-21.484375zm0 0"/></svg>