<svg xmlns="http://www.w3.org/2000/svg" viewBox="0 0 25 24.877">
  <defs>
    <style>
      .cls-1, .cls-2 {
        fill: #fff;
      }

      .cls-1 {
        stroke: #fff;
      }
    </style>
  </defs>
  <g id="edit" transform="translate(0.5 -0.261)">
    <path id="Path_226" data-name="Path 226" class="cls-1" d="M22.613,52.1a.61.61,0,0,0-.61.61v5.418a1.832,1.832,0,0,1-1.831,1.831H3.051A1.832,1.832,0,0,1,1.22,58.123v-15.9a1.833,1.833,0,0,1,1.831-1.831H8.469a.61.61,0,0,0,0-1.22H3.051A3.054,3.054,0,0,0,0,42.223v15.9a3.054,3.054,0,0,0,3.051,3.051H20.172a3.054,3.054,0,0,0,3.051-3.051V52.706A.61.61,0,0,0,22.613,52.1Zm0,0" transform="translate(0 -36.537)"/>
    <path id="Path_227" data-name="Path 227" class="cls-2" d="M124.569,1.065a2.746,2.746,0,0,0-3.883,0L109.8,11.951a.61.61,0,0,0-.157.269l-1.432,5.168a.61.61,0,0,0,.751.751l5.168-1.432a.61.61,0,0,0,.269-.157L125.285,5.664a2.749,2.749,0,0,0,0-3.883ZM111.13,12.348l8.909-8.91,2.873,2.873L114,15.221Zm-.574,1.152,2.3,2.3-3.175.88Zm13.867-8.7-.647.647L120.9,2.575l.647-.647a1.525,1.525,0,0,1,2.157,0l.716.716A1.528,1.528,0,0,1,124.422,4.8Zm0,0" transform="translate(-101.588)"/>
  </g>
</svg>
