<svg xmlns="http://www.w3.org/2000/svg" viewBox="0 0 45 44.992">
  <defs>
    <style>
      .cls-1 {
        fill: #fff;
      }

      .cls-2 {
        fill: #f4b400;
      }
    </style>
  </defs>
  <g id="student" transform="translate(0 -0.043)">
    <g id="Group_61" data-name="Group 61" transform="translate(0 0.043)">
      <g id="Group_60" data-name="Group 60" transform="translate(0 0)">
        <path id="Path_114" data-name="Path 114" class="cls-1" d="M43.242,126.849a1.758,1.758,0,0,0-1.758,1.758,3.52,3.52,0,0,1-3.516,3.516H7.031a3.52,3.52,0,0,1-3.516-3.516V111.029a3.485,3.485,0,0,1,.318-1.464,1.758,1.758,0,0,0-3.2-1.467A6.975,6.975,0,0,0,0,111.029v17.578a7.039,7.039,0,0,0,7.031,7.031H20.742v3.5H14.59a1.758,1.758,0,0,0,0,3.516H30.41a1.758,1.758,0,1,0,0-3.516H24.258v-3.5H37.969A7.039,7.039,0,0,0,45,128.607,1.758,1.758,0,0,0,43.242,126.849Z" transform="translate(0 -97.666)"/>
        <path id="Path_115" data-name="Path 115" class="cls-1" d="M469.911,108.1a1.758,1.758,0,1,0-3.2,1.467,3.485,3.485,0,0,1,.318,1.464v8.789a1.758,1.758,0,1,0,3.516,0V111.03A6.977,6.977,0,0,0,469.911,108.1Z" transform="translate(-425.549 -97.668)"/>
        <path id="Path_116" data-name="Path 116" class="cls-2" d="M74.758,16.657A1.758,1.758,0,0,0,76.516,14.9V10.861l2.88,1.026c-.332.987-1.034,3.712-1.034,9.078a1.758,1.758,0,0,0,1.587,1.749,22.2,22.2,0,0,1,8.164,2.852,1.763,1.763,0,0,0,1.129.409h.037a1.763,1.763,0,0,0,1.128-.408,22.48,22.48,0,0,1,8.165-2.852,1.758,1.758,0,0,0,1.587-1.749c0-5.349-.7-8.073-1.031-9.068l4.077-1.463a3.216,3.216,0,0,0,2.316-2.977,3.213,3.213,0,0,0-2.308-2.975L92.53.6a9.728,9.728,0,0,0-6.467,0L75.316,4.478a3.4,3.4,0,0,0-2.173,2.08A1.752,1.752,0,0,0,73,7.253V14.9A1.758,1.758,0,0,0,74.758,16.657Zm14.5,5.515a26.5,26.5,0,0,0-7.363-2.7,24.389,24.389,0,0,1,.812-6.408l3.358,1.2a9.726,9.726,0,0,0,6.463,0h0l3.286-1.179a24.556,24.556,0,0,1,.806,6.391A26.5,26.5,0,0,0,89.26,22.172ZM89.416,5.5H82.849l4.4-1.591a6.235,6.235,0,0,1,4.082,0L101.1,7.454l-9.756,3.5a6.243,6.243,0,0,1-4.093,0L81.8,9.011h7.616a1.758,1.758,0,1,0,0-3.516Z" transform="translate(-66.584 -0.043)"/>
      </g>
    </g>
  </g>
</svg>
