<svg xmlns="http://www.w3.org/2000/svg" viewBox="0 0 12.5 18.507">
  <defs>
    <style>
      .cls-1 {
        fill: #fff;
      }
    </style>
  </defs>
  <path id="self-confidence" class="cls-1" d="M62.787,16.417a3.478,3.478,0,0,1-2.6,2.069.472.472,0,0,1-.276-.9c1.118-.341,1.78-.826,1.968-1.442a.472.472,0,0,1,.9.276Zm-2.305-.471a.472.472,0,0,0-.472-.472,1.832,1.832,0,0,1-1.83-1.83V9.1a5.24,5.24,0,0,1,.388-1.986.472.472,0,1,0-.875-.356A6.181,6.181,0,0,0,57.236,9.1v4.542a2.777,2.777,0,0,0,2.774,2.774A.472.472,0,0,0,60.482,15.946Zm6.974-5.666a5.586,5.586,0,0,0-.348-2.01.484.484,0,0,0-.023-.052.473.473,0,0,0-.7-.168,5.24,5.24,0,0,1-2.888.755.472.472,0,0,0,0,.945h0a6.713,6.713,0,0,0,2.89-.611,5.046,5.046,0,0,1,.124,1.142,3.943,3.943,0,0,1-1.9,3.42,1.82,1.82,0,0,1-2.243,0,3.943,3.943,0,0,1-1.9-3.42,5.047,5.047,0,0,1,.123-1.141q.131.064.27.123l.047.02a.985.985,0,0,0,.809.117c.259-.11.347-.34.449-.607.022-.057.046-.121.076-.194.125-.309.262-.69.313-.869a.472.472,0,1,0-.909-.259c-.037.13-.159.472-.28.774-.026.065-.049.123-.069.176l-.023-.01-.048-.02a3.462,3.462,0,0,1-.631-.34.473.473,0,0,0-.724.22,5.586,5.586,0,0,0-.348,2.009,4.89,4.89,0,0,0,2.373,4.236,3.134,3.134,0,0,0,1.6.515h0a3.134,3.134,0,0,0,1.6-.515A4.89,4.89,0,0,0,67.456,10.28Zm-.429,7.3c-1.118-.341-1.78-.826-1.968-1.442a.472.472,0,1,0-.9.276,3.478,3.478,0,0,0,2.6,2.069.472.472,0,1,0,.276-.9ZM69.736,9.1v4.542a2.777,2.777,0,0,1-2.774,2.774.472.472,0,1,1,0-.945,1.832,1.832,0,0,0,1.83-1.83V9.1A5.313,5.313,0,0,0,63.978,3.82l.1.745a.472.472,0,0,1-.35.521l-3.387.875a.472.472,0,0,1-.558-.287l-1.5-3.883a.472.472,0,0,1,.548-.631l.967.226L60.3.276a.472.472,0,0,1,.7-.188l1,.712.726-.65a.472.472,0,0,1,.783.288l.331,2.424A6.258,6.258,0,0,1,69.736,9.1ZM63.087,4.276,62.7,1.447l-.345.308a.472.472,0,0,1-.589.033l-.844-.6-.432.942a.472.472,0,0,1-.537.263l-.472-.11,1.03,2.657Z" transform="translate(-57.236 0)"/>
</svg>
