<?xml version="1.0" encoding="iso-8859-1"?>
<!-- Generator: Adobe Illustrator 19.0.0, SVG Export Plug-In . SVG Version: 6.00 Build 0)  -->
<svg version="1.1" id="Capa_1" xmlns="http://www.w3.org/2000/svg" xmlns:xlink="http://www.w3.org/1999/xlink" x="0px" y="0px"
	 viewBox="0 0 512 512" style="enable-background:new 0 0 512 512;" xml:space="preserve">
<g>
	<g>
		<path d="M374.007,107.991H154.905l150.098-86.659c4.772-2.758,10.902-1.115,13.66,3.661l33.868,58.661
			c2.763,4.783,8.879,6.422,13.66,3.66c4.783-2.761,6.422-8.877,3.66-13.66l-33.868-58.661c-8.271-14.325-26.656-19.25-40.981-10.98
			L115.119,107.869c-0.067,0.039-0.126,0.084-0.192,0.124H30.001C13.458,107.993,0,121.451,0,137.993v344.006
			C0,498.542,13.458,512,30.001,512h344.006c16.542,0,30.001-13.458,30.001-30.001V137.993
			C404.007,121.45,390.549,107.991,374.007,107.991z M384.007,481.998c0,5.514-4.486,10-10,10H30.001c-5.514,0-10-4.486-10-10
			V137.992c0-5.514,4.486-10,10-10h344.006c5.514,0,10,4.486,10,10V481.998z"/>
	</g>
</g>
<g>
	<g>
		<path d="M447.307,208.504c-1.861-1.86-4.44-2.93-7.07-2.93s-5.21,1.07-7.069,2.93c-1.86,1.86-2.931,4.44-2.931,7.07
			c0,2.63,1.07,5.21,2.931,7.07c1.86,1.859,4.44,2.93,7.069,2.93c2.63,0,5.21-1.07,7.07-2.93c1.86-1.86,2.93-4.44,2.93-7.07
			C450.237,212.944,449.168,210.364,447.307,208.504z"/>
	</g>
</g>
<g>
	<g>
		<path d="M507.987,312.911l-41.376-71.665c-2.762-4.783-8.876-6.421-13.66-3.66c-4.783,2.761-6.422,8.877-3.66,13.66l41.376,71.664
			c2.757,4.776,1.115,10.904-3.66,13.661l-64.312,37.13c-4.783,2.761-6.422,8.877-3.66,13.66c1.853,3.208,5.213,5.001,8.67,5.001
			c1.696,0,3.416-0.432,4.99-1.341l64.312-37.13C511.331,345.621,516.257,327.238,507.987,312.911z"/>
	</g>
</g>
<g>
	<g>
		<path d="M263.074,158.922c-1.859-1.86-4.439-2.93-7.069-2.93c-2.63,0-5.21,1.07-7.07,2.93c-1.86,1.86-2.93,4.44-2.93,7.07
			s1.069,5.21,2.93,7.07s4.44,2.93,7.07,2.93c2.63,0,5.21-1.07,7.069-2.93c1.86-1.86,2.931-4.44,2.931-7.07
			S264.935,160.782,263.074,158.922z"/>
	</g>
</g>
<g>
	<g>
		<path d="M346.006,155.992h-39.001c-5.522,0-10,4.477-10,10c0,5.523,4.478,10,10,10h29v142.573l-79.391-79.39
			c-1.876-1.875-4.419-2.929-7.071-2.929s-5.195,1.054-7.071,2.929l-52.978,52.978c-3.905,3.905-3.905,10.237,0,14.142
			c3.906,3.905,10.236,3.905,14.143,0l45.906-45.907l86.392,86.392c0.023,0.023,0.048,0.042,0.071,0.064v49.152H82.145
			l72.597-72.597l53.93,53.93c3.906,3.905,10.236,3.905,14.143,0c3.905-3.905,3.905-10.237,0-14.143l-61.001-61.001
			c-1.876-1.875-4.419-2.929-7.071-2.929s-5.195,1.054-7.071,2.929l-79.67,79.67V175.992h134.002c5.522,0,10-4.477,10-10
			c0-5.523-4.478-10-10-10H58.001c-5.522,0-10,4.477-10,10v240.004c0,5.523,4.478,10,10,10h288.005c5.522,0,10-4.477,10-10V165.992
			C356.006,160.47,351.528,155.992,346.006,155.992z"/>
	</g>
</g>
<g>
	<g>
		<path d="M145.67,198.992c-17.645,0-32.001,14.355-32.001,32.001s14.355,32.001,32.001,32.001
			c17.645,0,32.001-14.355,32.001-32.001S163.315,198.992,145.67,198.992z M145.67,242.993c-6.617,0-12-5.383-12-12s5.383-12,12-12
			s12,5.384,12,12C157.67,237.61,152.287,242.993,145.67,242.993z"/>
	</g>
</g>
<g>
</g>
<g>
</g>
<g>
</g>
<g>
</g>
<g>
</g>
<g>
</g>
<g>
</g>
<g>
</g>
<g>
</g>
<g>
</g>
<g>
</g>
<g>
</g>
<g>
</g>
<g>
</g>
<g>
</g>
</svg>
