<svg height="512pt" viewBox="0 0 512 512" width="512pt" xmlns="http://www.w3.org/2000/svg"><path d="m452 40h-24v-40h-40v40h-264v-40h-40v40h-24c-33.085938 0-60 26.914062-60 60v352c0 33.085938 26.914062 60 60 60h392c33.085938 0 60-26.914062 60-60v-352c0-33.085938-26.914062-60-60-60zm-392 40h24v40h40v-40h264v40h40v-40h24c11.027344 0 20 8.972656 20 20v48h-432v-48c0-11.027344 8.972656-20 20-20zm392 392h-392c-11.027344 0-20-8.972656-20-20v-264h432v264c0 11.027344-8.972656 20-20 20zm-376-242h40v40h-40zm80 0h40v40h-40zm80 0h40v40h-40zm120 40h-40v-40h40zm80 0h-40v-40h40zm-360 40h40v40h-40zm80 0h40v40h-40zm80 0h40v40h-40zm-160 80h40v40h-40zm80 0h40v40h-40zm80 0h40v40h-40zm206-35.050781-33 31.53125 7.789062 44.519531-40.789062-21.019531-40.789062 21.019531 7.789062-44.519531-33-31.53125 45.605469-6.492188 20.394531-40.507812 20.394531 40.503906zm0 0"/></svg>