<?xml version="1.0"?>
<svg xmlns="http://www.w3.org/2000/svg" height="512px" viewBox="0 -30 512 512" width="512px"><path d="m481.585938 452.292969h-321.542969c-4.710938 0-8.535157-3.816407-8.535157-8.535157v-21.878906c0-26.898437 18.339844-49.765625 44.597657-55.621094l51.496093-11.46875c5.054688-3.292968 14.117188-9.601562 14.117188-15.308593 0-4.523438-3.023438-8.722657-8.097656-11.246094-14.003906-6.964844-37.796875-26.703125-39.785156-80.640625-.085938-2.304688-.9375-4.308594-2.398438-5.640625-10-9.207031-28.140625-27.996094-37.347656-50.527344-6.957032-17.003906-.683594-36.554687 15.605468-48.636719 2.175782-1.613281 3.441407-3.960937 3.464844-6.417968.179688-19.925782 2.859375-40.046875 9.855469-58.789063 5.375-14.394531 13.363281-27.792969 23.972656-38.953125 9.0625-9.53125 19.863281-17.296875 31.613281-23.167968 10.386719-5.1875 21.472657-8.917969 32.792969-11.410157 9.039063-1.988281 18.253907-3.207031 27.496094-3.695312 12.492187-.648438 25.242187-.476563 37.691406 1.042969 10.429688 1.28125 20.746094 3.5 30.71875 6.816406 11.683594 3.882812 22.886719 9.285156 32.957031 16.378906 11.410157 8.035156 21.214844 18.21875 28.773438 29.941406 9.269531 14.378906 15.054688 30.746094 18.175781 47.503906 2.109375 11.324219 3.046875 22.855469 3.148438 34.363282.027343 3.304687 2.375 5.546875 3.765625 6.597656 15.972656 12.03125 22.203125 31.316406 15.488281 47.984375-9.148437 22.699219-27.433594 41.660156-37.523437 50.941406-1.464844 1.351563-2.320313 3.363281-2.40625 5.660157-1.996094 53.9375-25.785157 73.675781-39.789063 80.640624-5.070313 2.523438-8.097656 6.722657-8.097656 11.246094 0 5.707032 9.0625 12.015625 14.113281 15.308594l51.5 11.46875c26.253906 5.851562 44.59375 28.714844 44.59375 55.621094 0 16.773437-13.644531 30.421875-30.414062 30.421875zm-313.011719-17.070313h313.011719c7.355468 0 13.347656-5.988281 13.347656-13.34375 0-18.84375-12.84375-34.859375-31.242188-38.945312l-52.980468-11.804688c-.984376-.21875-1.921876-.613281-2.765626-1.160156-7.535156-4.84375-23.21875-14.941406-23.21875-30.480469 0-10.972656 6.730469-21.144531 17.570313-26.53125 10.605469-5.273437 28.652344-20.863281 30.324219-65.988281.257812-6.894531 3.066406-13.132812 7.914062-17.585938 7.261719-6.679687 25.042969-24.4375 33.234375-44.765624 4.378907-10.855469-1.824219-21.871094-9.921875-27.964844-6.648437-5-10.496094-12.320313-10.566406-20.085938-.167969-19.910156-3.070312-40.140625-11.117188-58.488281-6.015624-13.722656-14.976562-26.035156-26.546874-35.589844-9.917969-8.195312-21.480469-14.210937-33.65625-18.253906-10.488282-3.480469-21.4375-5.546875-32.445313-6.46875-16.425781-1.375-33.484375-1.074219-49.765625 1.859375-11.945312 2.160156-23.664062 5.835938-34.464844 11.417969-12.296875 6.359375-23.210937 15.222656-31.683594 26.199219-10.523437 13.625-16.933593 29.949218-20.257812 46.753906-2.117188 10.699218-3.039062 21.621094-3.140625 32.527344-.070313 7.859374-3.851563 15.136718-10.359375 19.976562-8.261719 6.128906-14.550781 17.296875-9.984375 28.46875 8.25 20.1875 25.898437 37.792969 33.097656 44.421875 4.839844 4.4375 7.648438 10.675781 7.914063 17.578125 1.664062 45.125 19.71875 60.714844 30.324218 65.988281 10.839844 5.394531 17.5625 15.558594 17.5625 26.53125 0 15.53125-15.675781 25.636719-23.210937 30.480469-.84375.539062-1.78125.929688-2.765625 1.160156l-52.980469 11.804688c-18.390625 4.085937-31.242187 20.101562-31.242187 38.945312v13.34375zm0 0" fill="#969ca9"/><path d="m160.042969 452.292969h-129.628907c-16.769531 0-30.414062-13.648438-30.414062-30.414063v-10.914062c0-20.257813 10.898438-39.144532 28.441406-49.28125l69.65625-40.285156c-29.011718-1.585938-52.71875-12.023438-68.777344-21.667969-5.496093-3.300781-8.910156-9.078125-9.15625-15.46875-.230468-6.144531 2.585938-11.914063 7.542969-15.445313 13.527344-9.617187 36.226563-39.253906 36.226563-129.578125 0-45.082031 13.132812-80.214843 39.019531-104.441406 39.144531-36.617187 93.398437-35.011719 99.832031-34.671875 4.625-.1953125 35.089844-1.054688 66.511719 12.945312 3.042969 1.359376 5.023437 4.371094 5.058594 7.707032.035156 3.335937-1.886719 6.390625-4.914063 7.808594-52.796875 24.753906-58.992187 83.738281-59.207031 107.953124-.066406 7.742188-3.933594 15.089844-10.613281 20.148438-7.46875 5.65625-14.53125 16.359375-9.875 27.921875 8.191406 20.324219 25.976562 38.082031 33.246094 44.773437 4.839843 4.4375 7.648437 10.675782 7.910156 17.578126 1.664062 45.125 19.722656 60.714843 30.328125 65.988281 10.835937 5.394531 17.5625 15.558593 17.5625 26.53125 0 15.53125-15.675781 25.632812-23.210938 30.480469-.84375.539062-1.785156.929687-2.765625 1.160156l-53.058594 11.820312c-18.347656 4.085938-31.164062 20.070313-31.164062 38.867188v21.949218c-.019531 4.71875-3.839844 8.535157-8.550781 8.535157zm-37.554688-148.824219c4.582031 0 8.6875 2.816406 10.28125 7.21875 1.742188 4.8125-.050781 10.121094-4.367187 12.894531l-91.417969 52.863281c-12.28125 7.109376-19.910156 20.335938-19.910156 34.519532v10.914062c0 7.355469 5.992187 13.34375 13.347656 13.34375h121.097656v-13.414062c0-26.851563 18.3125-49.6875 44.523438-55.535156l51.570312-11.484376c5.050781-3.292968 14.113281-9.601562 14.113281-15.308593 0-4.523438-3.023437-8.722657-8.097656-11.246094-14.003906-6.964844-37.796875-26.703125-39.785156-80.640625-.082031-2.304688-.9375-4.308594-2.394531-5.640625-10.097657-9.300781-28.382813-28.261719-37.53125-50.960937-6.691407-16.613282-.503907-35.875 15.394531-47.90625 2.429688-1.84375 3.839844-4.285157 3.855469-6.699219.222656-24.753907 6.121093-81.671875 52.480469-113.773438-22.972657-6.5625-42.101563-5.472656-42.332032-5.429687-.359375.019531-.742187.011718-1.101562 0-.519532-.058594-52.429688-2.925782-87.707032 30.175781-22.226562 20.863281-33.5 51.769531-33.5 91.878906 0 93.082031-23.605468 129.40625-43.394531 143.476563-.144531.105468-.398437.292968-.375.878906.007813.230469.105469 1.027344.898438 1.503906 18.167969 10.914063 47.308593 22.953125 82.976562 18.457032.445313-.066407.914063-.085938 1.375-.085938zm-89.78125 65.589844h.085938zm0 0" fill="#969ca9"/></svg>
