<svg height="511pt" viewBox="-83 1 511 511.99897" width="511pt" xmlns="http://www.w3.org/2000/svg"><path d="m103.050781 375.285156v68.125h-16.058593c-8.535157 0-15.457032 6.921875-15.457032 15.460938 0 8.539062 6.921875 15.460937 15.457032 15.460937h16.058593v22.207031c0 8.539063 6.921875 15.460938 15.460938 15.460938 8.539062 0 15.460937-6.921875 15.460937-15.460938v-22.207031h16.054688c8.539062 0 15.460937-6.921875 15.460937-15.460937 0-8.539063-6.921875-15.460938-15.460937-15.460938h-16.054688v-68.125c-5.085937.527344-10.242187.800782-15.460937.800782-5.222657 0-10.378907-.273438-15.460938-.800782zm0 0"/><path d="m330.203125 0h-57.832031c-8.539063 0-15.460938 6.921875-15.460938 15.460938 0 8.539062 6.921875 15.460937 15.460938 15.460937h20.507812l-80.609375 80.605469c8.019531 6.515625 15.351563 13.847656 21.867188 21.867187l80.605469-80.609375v20.507813c0 8.539062 6.921874 15.460937 15.460937 15.460937s15.460937-6.921875 15.460937-15.460937v-57.832031c0-8.539063-6.921874-15.460938-15.460937-15.460938zm0 0"/><path d="m118.511719 109.140625c-65.070313 0-118.011719 52.9375-118.011719 118.011719 0 65.070312 52.941406 118.011718 118.011719 118.011718 65.070312 0 118.011719-52.941406 118.011719-118.011718 0-65.074219-52.941407-118.011719-118.011719-118.011719zm34.484375 158.421875h-68.96875c-8.535156 0-15.460938-6.925781-15.460938-15.460938 0-8.539062 6.925782-15.460937 15.460938-15.460937h68.96875c8.539062 0 15.460937 6.921875 15.460937 15.460937 0 8.535157-6.921875 15.460938-15.460937 15.460938zm0-49.898438h-68.96875c-8.535156 0-15.460938-6.921874-15.460938-15.460937s6.925782-15.460937 15.460938-15.460937h68.96875c8.539062 0 15.460937 6.921874 15.460937 15.460937s-6.921875 15.460937-15.460937 15.460937zm0 0"/></svg>