<?xml version="1.0" encoding="iso-8859-1"?>
<!-- Generator: Adobe Illustrator 19.0.0, SVG Export Plug-In . SVG Version: 6.00 Build 0)  -->
<svg version="1.1" id="Capa_1" xmlns="http://www.w3.org/2000/svg" xmlns:xlink="http://www.w3.org/1999/xlink" x="0px" y="0px"
	 viewBox="0 0 512 512" style="enable-background:new 0 0 512 512;" xml:space="preserve">
<g>
	<g>
		<path d="M511.812,167.164C508.179,89.995,448.439,29.1,377.056,28.529c-0.352,0-0.688,0-1.04,0
			c-65.963,0-102.73,48.413-120.016,81.095c-17.285-32.681-54.052-81.095-120.015-81.095c-0.352,0-0.703,0-1.04,0
			C63.562,29.101,3.821,89.995,0.188,167.164c-4.468,94.63,71.035,158.132,183.814,254.225
			c19.526,16.641,40.298,34.336,62.125,53.439l9.873,8.643l9.873-8.642c21.826-19.102,42.598-36.797,62.125-53.439
			C440.777,325.295,516.28,261.794,511.812,167.164z"/>
	</g>
</g>
<g>
</g>
<g>
</g>
<g>
</g>
<g>
</g>
<g>
</g>
<g>
</g>
<g>
</g>
<g>
</g>
<g>
</g>
<g>
</g>
<g>
</g>
<g>
</g>
<g>
</g>
<g>
</g>
<g>
</g>
</svg>
