<svg xmlns="http://www.w3.org/2000/svg" viewBox="0 0 87.595 166.133">
  <defs>
    <style>
      .cls-1 {
        fill: #ddd;
      }
    </style>
  </defs>
  <g id="lamp" transform="translate(-1.079 21.544)">
    <path id="Path_76" data-name="Path 76" class="cls-1" d="M95.848,288a20.774,20.774,0,0,0,41.29,0Zm0,0" transform="translate(-71.616 -161.872)"/>
    <path id="Path_77" data-name="Path 77" class="cls-1" d="M66,128.5c-1.128-.161-2.234-.282-3.331-.362a45.511,45.511,0,0,0-9.868.362,44.132,44.132,0,0,0-37.2,41.064h87.6A44.139,44.139,0,0,0,66,128.5Zm0,0" transform="translate(-14.527 -48.049)"/>
    <path id="Path_83" data-name="Path 83" class="cls-1" d="M158.323,66.113V-17.41c0-1.275-1.181-4.134-2.456-4.134s-2.161,2.86-2.161,4.134V66.113H151.4v9.464c.141-.014.275,0,.416-.019,1.362-.117,2.712-.189,4.053-.194l.148-.018h.115c1.36,0,2.724.079,4.1.2a3.023,3.023,0,0,1,.4.018V66.113Zm0,0" transform="translate(-111.139 0)"/>
  </g>
</svg>
