<?xml version="1.0" encoding="iso-8859-1"?>
<!-- Generator: Adobe Illustrator 16.0.0, SVG Export Plug-In . SVG Version: 6.00 Build 0)  -->
<!DOCTYPE svg PUBLIC "-//W3C//DTD SVG 1.1//EN" "http://www.w3.org/Graphics/SVG/1.1/DTD/svg11.dtd">
<svg version="1.1" id="Capa_1" xmlns="http://www.w3.org/2000/svg" xmlns:xlink="http://www.w3.org/1999/xlink" x="0px" y="0px"
	 width="126.154px" height="126.154px" viewBox="0 0 126.154 126.154" style="enable-background:new 0 0 126.154 126.154;"
	 xml:space="preserve">
<g>
	<g id="_x33_54._Volume_Indicator">
		<g>
			<path d="M7.009,77.091C3.14,77.091,0,80.229,0,84.1v14.018c0,3.87,3.14,7.012,7.009,7.012s7.009-3.142,7.009-7.012V84.1
				C14.018,80.229,10.877,77.091,7.009,77.091z M35.043,63.074c-3.869,0-7.008,3.138-7.008,7.008v28.035
				c0,3.87,3.14,7.008,7.008,7.008s7.009-3.138,7.009-7.008V70.082C42.052,66.212,38.912,63.074,35.043,63.074z M63.077,49.057
				c-3.869,0-7.008,3.14-7.008,7.009v42.052c0,3.87,3.14,7.008,7.008,7.008c3.867,0,7.009-3.138,7.009-7.008V56.065
				C70.086,52.196,66.944,49.057,63.077,49.057z M91.111,35.04c-3.866,0-7.008,3.14-7.008,7.008v56.069
				c0,3.87,3.142,7.012,7.008,7.012c3.867,0,7.009-3.142,7.009-7.012V42.048C98.12,38.179,94.979,35.04,91.111,35.04z
				 M119.146,21.025c-3.867,0-7.009,3.137-7.009,7.005v70.086c0,3.87,3.142,7.012,7.009,7.012s7.008-3.142,7.008-7.012V28.031
				C126.154,24.162,123.014,21.025,119.146,21.025z"/>
		</g>
	</g>
</g>
<g>
</g>
<g>
</g>
<g>
</g>
<g>
</g>
<g>
</g>
<g>
</g>
<g>
</g>
<g>
</g>
<g>
</g>
<g>
</g>
<g>
</g>
<g>
</g>
<g>
</g>
<g>
</g>
<g>
</g>
</svg>
