<svg xmlns="http://www.w3.org/2000/svg" viewBox="0 0 41.104 38">
  <defs>
    <style>
      .cls-1 {
        fill: #fff;
      }

      .cls-2 {
        fill: #f4b400;
      }
    </style>
  </defs>
  <g id="passage-of-time" transform="translate(0 -1.775)">
    <g id="Layer_1_65_" transform="translate(0 1.775)">
      <g id="Group_127" data-name="Group 127">
        <path id="Path_242" data-name="Path 242" class="cls-1" d="M41.022,17.819a.865.865,0,0,0-.784-.5h-2.56A18.986,18.986,0,1,0,35.456,30.28a1.727,1.727,0,0,0-2.99-1.731,15.561,15.561,0,1,1,1.679-11.227h-2.54a.864.864,0,0,0-.665,1.417l4.319,5.182a.864.864,0,0,0,1.327,0L40.9,18.739A.863.863,0,0,0,41.022,17.819Z" transform="translate(0 -1.775)"/>
        <path id="Path_243" data-name="Path 243" class="cls-2" d="M21.292,6.713A1.727,1.727,0,0,0,19.565,8.44V18.921a3.02,3.02,0,0,0,1.728,5.5,2.985,2.985,0,0,0,1.275-.292l6.008,3.468a1.709,1.709,0,0,0,.862.233A1.727,1.727,0,0,0,30.3,24.6l-6.014-3.473a3.008,3.008,0,0,0-1.267-2.209V8.44A1.731,1.731,0,0,0,21.292,6.713Zm0,15.977a1.295,1.295,0,1,1,1.3-1.294A1.3,1.3,0,0,1,21.292,22.69Z" transform="translate(-2.292 -2.394)"/>
      </g>
    </g>
  </g>
</svg>
