<svg xmlns="http://www.w3.org/2000/svg" viewBox="0 0 32.948 26.292">
  <defs>
    <style>
      .cls-1 {
        fill: #f4b400;
      }

      .cls-2 {
        fill: #747474;
      }

      .cls-3 {
        fill: #fff;
      }
    </style>
  </defs>
  <g id="track_2_" data-name="track (2)" transform="translate(0 -36)">
    <path id="Path_125" data-name="Path 125" class="cls-1" d="M7.839,241.6a3.439,3.439,0,1,0,3.439,3.439A3.456,3.456,0,0,0,7.839,241.6Zm0,5.066A1.664,1.664,0,1,1,9.5,245,1.657,1.657,0,0,1,7.839,246.666Z" transform="translate(-3.993 -186.593)"/>
    <g id="Group_64" data-name="Group 64" transform="translate(7.285 45.245)">
      <path id="Path_126" data-name="Path 126" class="cls-1" d="M82.239,141.2a3.439,3.439,0,1,0,3.439,3.439A3.456,3.456,0,0,0,82.239,141.2Zm0,5.1a1.664,1.664,0,1,1,1.664-1.664A1.657,1.657,0,0,1,82.239,146.3Z" transform="translate(-78.8 -140.719)"/>
      <path id="Path_127" data-name="Path 127" class="cls-2" d="M193.839,136a3.439,3.439,0,1,0,3.439,3.439A3.456,3.456,0,0,0,193.839,136Zm0,5.066A1.664,1.664,0,1,1,195.5,139.4,1.706,1.706,0,0,1,193.839,141.066Z" transform="translate(-180.083 -136)"/>
    </g>
    <path id="Path_128" data-name="Path 128" class="cls-1" d="M280.639,41.2a3.439,3.439,0,1,0,3.439,3.439A3.456,3.456,0,0,0,280.639,41.2Zm0,5.066A1.664,1.664,0,1,1,282.3,44.6,1.657,1.657,0,0,1,280.639,46.266Z" transform="translate(-251.574 -4.719)"/>
    <g id="Group_65" data-name="Group 65" transform="translate(0 36)">
      <path id="Path_129" data-name="Path 129" class="cls-3" d="M95.308,155.6a2.108,2.108,0,1,0,2.108,2.108A2.131,2.131,0,0,0,95.308,155.6Zm0,3.328a1.22,1.22,0,1,1,1.22-1.22A1.256,1.256,0,0,1,95.308,158.928Z" transform="translate(-84.584 -144.543)"/>
      <path id="Path_130" data-name="Path 130" class="cls-1" d="M206.908,150.4a2.108,2.108,0,1,0,2.108,2.108A2.107,2.107,0,0,0,206.908,150.4Zm0,3.291a1.22,1.22,0,1,1,1.22-1.22A1.256,1.256,0,0,1,206.908,153.691Z" transform="translate(-185.867 -139.824)"/>
      <path id="Path_131" data-name="Path 131" class="cls-3" d="M29.065,36a3.882,3.882,0,0,0-3.883,3.883,3.816,3.816,0,0,0,.961,2.552l-2.773,3.106a4,4,0,0,0-2.33-.777,3.906,3.906,0,0,0-3.883,3.587H14.533a3.888,3.888,0,0,0-3.809-3.106,3.938,3.938,0,0,0-3.883,3.92,3.88,3.88,0,0,0,1.22,2.81L5.806,55.044a3.739,3.739,0,0,0-1.923-.518,3.906,3.906,0,1,0,2.625,1.035l2.256-3.069a3.978,3.978,0,0,0,1.96.518,3.884,3.884,0,0,0,3.883-3.772H17.2a3.89,3.89,0,1,0,6.841-3.106l2.773-3.143A3.865,3.865,0,1,0,29.065,36ZM6.841,58.446a3,3,0,1,1-3-3,2.879,2.879,0,0,1,1.368.333l-.518.7a2.194,2.194,0,0,0-.851-.185,2.108,2.108,0,1,0,0,4.216,2.131,2.131,0,0,0,2.108-2.108,2.229,2.229,0,0,0-.518-1.368l.518-.74A2.987,2.987,0,0,1,6.841,58.446Zm-1.775,0a1.22,1.22,0,1,1-1.22-1.22A1.231,1.231,0,0,1,5.066,58.446Zm5.658-6.286a3,3,0,1,1,3-3A3.056,3.056,0,0,1,10.724,52.16Zm10.317-.518a3,3,0,1,1,3-3A3.006,3.006,0,0,1,21.041,51.642Zm8.024-8.764a3.006,3.006,0,0,1-1.627-.481l.592-.666a1.988,1.988,0,0,0,1.035.3,2.108,2.108,0,1,0-2.108-2.108,2.1,2.1,0,0,0,.407,1.22l-.629.629a3.078,3.078,0,0,1-.666-1.886,3,3,0,0,1,5.991,0,3.126,3.126,0,0,1-1.5,2.592A2.705,2.705,0,0,1,29.065,42.878Zm-1.22-3a1.22,1.22,0,1,1,1.22,1.22A1.231,1.231,0,0,1,27.845,39.883Z" transform="translate(0 -36)"/>
    </g>
  </g>
</svg>
