<svg id="message" xmlns="http://www.w3.org/2000/svg" viewBox="0 0 29 29">
  <defs>
    <style>
      .cls-1, .cls-3 {
        fill: #fff;
      }

      .cls-2 {
        fill: #f4b400;
      }

      .cls-3 {
        font-size: 4px;
        font-family: DINAlternate-Bold, DIN Alternate;
        font-weight: 700;
      }
    </style>
  </defs>
  <path id="Path_121" data-name="Path 121" class="cls-1" d="M14.5,29a14.417,14.417,0,0,1-7.97-2.386L1.546,28.163a.566.566,0,0,1-.709-.709L2.386,22.47A14.5,14.5,0,0,1,24.753,4.247,14.5,14.5,0,0,1,14.5,29ZM6.621,25.426a.567.567,0,0,1,.321.1,13.366,13.366,0,1,0-3.467-3.467.567.567,0,0,1,.074.489l-1.31,4.214,4.214-1.309A.569.569,0,0,1,6.621,25.426Zm0,0" transform="translate(0)"/>
  <path id="Path_122" data-name="Path 122" class="cls-2" d="M117.923,150.066a.566.566,0,0,1-.318-.1,37.545,37.545,0,0,1-3.928-3.152c-2.683-2.482-4.044-4.62-4.044-6.355a5.269,5.269,0,0,1,5.04-5.461,4.835,4.835,0,0,1,3.25,1.287,4.835,4.835,0,0,1,3.25-1.287,5.269,5.269,0,0,1,5.04,5.461c0,1.735-1.361,3.873-4.044,6.355a37.53,37.53,0,0,1-3.928,3.152A.566.566,0,0,1,117.923,150.066Zm-3.25-13.934c-2.155,0,2.41-1.446,2.41.94,0,2.724-1.423-1.2.84.4,2.262-1.6.429,2.327.429-.4,0-2.387,4.976-.94,2.822-.94a3.7,3.7,0,0,0-2.822,1.335.566.566,0,0,1-.857,0A3.7,3.7,0,0,0,114.673,136.133Zm0,0" transform="translate(-103.423 -127.354)"/>
  <path id="Path_123" data-name="Path 123" d="M246.6,54.133h-.035a.566.566,0,0,1,0-1.133h.037a.566.566,0,0,1,0,1.133Zm0,0" transform="translate(-232.066 -49.998)"/>
  <path id="Path_124" data-name="Path 124" d="M290,60.827a.564.564,0,0,1-.4-.165,10.314,10.314,0,0,0-5.291-2.832.566.566,0,0,1,.221-1.111,11.443,11.443,0,0,1,5.87,3.141.566.566,0,0,1-.4.967Zm0,0" transform="translate(-267.779 -53.496)"/>
  <text id="_2K" data-name="2K" class="cls-3" transform="translate(12.215 11.015)"><tspan x="0" y="4">2K</tspan></text>
</svg>
