<svg viewBox="-8 0 464 464" width="464pt" xmlns="http://www.w3.org/2000/svg">

	<path d="m192 384h64v80h-64zm0 0"/>
	
	<path d="m184 240c0 22.089844 17.910156 40 40 40s40-17.910156 40-40-17.910156-40-40-40c-22.082031.027344-39.972656 17.917969-40 40zm48 8h-32v-16h16v-24h16zm0 0" style="fill: #fff;"/>

	<path d="m0 208v256h128v-256zm56 168h-32v-16h32zm0-32h-32v-16h32zm0-32h-32v-16h32zm0-32h-32v-16h32zm0-32h-32v-16h32zm48 128h-32v-16h32zm0-32h-32v-16h32zm0-32h-32v-16h32zm0-32h-32v-16h32zm0-32h-32v-16h32zm0 0"/>

	<path d="m448 464v-256h-128v256zm-56-232h32v16h-32zm0 32h32v16h-32zm0 32h32v16h-32zm0 32h32v16h-32zm0 32h32v16h-32zm-48-128h32v16h-32zm0 32h32v16h-32zm0 32h32v16h-32zm0 32h32v16h-32zm0 32h32v16h-32zm0 0"/>

	<path d="m144 172.070312v291.929688h32v-88c0-4.417969 3.582031-8 8-8h80c4.417969 0 8 3.582031 8 8v88h32v-291.929688l-80-58.183593zm136 67.929688c0 30.929688-25.070312 56-56 56s-56-25.070312-56-56 25.070312-56 56-56c30.914062.035156 55.964844 25.085938 56 56zm0 0"/>

	<path d="m224 16h96v48h-96zm0 0"/>

	<path d="m224 136c-4.417969 0-8-3.582031-8-8v-120c0-4.417969 3.582031-8 8-8s8 3.582031 8 8v120c0 4.417969-3.582031 8-8 8zm0 0"/>

</svg>