<svg id="trophy" xmlns="http://www.w3.org/2000/svg" viewBox="0 0 26.583 26.582">
  <defs>
    <style>
      .cls-1 {
        fill: #fff;
      }
    </style>
  </defs>
  <path id="Path_162" data-name="Path 162" class="cls-1" d="M25.8,1.919H22.392q.019-.567.019-1.14A.779.779,0,0,0,21.633,0H4.95a.779.779,0,0,0-.779.779q0,.573.019,1.14H.779A.779.779,0,0,0,0,2.7a16.879,16.879,0,0,0,2.568,9.27,8.126,8.126,0,0,0,6.173,4.009,8,8,0,0,0,1.686,1.416v3.461H9.121a2.867,2.867,0,0,0-2.864,2.864v1.306H6.2a.779.779,0,1,0,0,1.558H20.382a.779.779,0,1,0,0-1.558h-.055V23.718a2.867,2.867,0,0,0-2.864-2.864H16.156V17.393a7.991,7.991,0,0,0,1.687-1.416,8.126,8.126,0,0,0,6.173-4.009A16.879,16.879,0,0,0,26.583,2.7.779.779,0,0,0,25.8,1.919ZM3.865,11.1A15.009,15.009,0,0,1,1.574,3.476h2.7A26.025,26.025,0,0,0,6.7,12.924q.312.623.65,1.177A7.511,7.511,0,0,1,3.865,11.1Zm14.9,12.613v1.307H7.814V23.718a1.308,1.308,0,0,1,1.307-1.307h8.342A1.308,1.308,0,0,1,18.769,23.718ZM14.6,20.854H11.985V18.069a5.067,5.067,0,0,0,2.613,0Zm.482-4.637a.76.76,0,0,0-.1.051,3.636,3.636,0,0,1-3.375,0,.777.777,0,0,0-.1-.052,6.269,6.269,0,0,1-1.76-1.451.786.786,0,0,0-.1-.116,12.28,12.28,0,0,1-1.553-2.422A25.709,25.709,0,0,1,5.737,1.558H20.845a25.715,25.715,0,0,1-2.352,10.67,12.289,12.289,0,0,1-1.553,2.422.767.767,0,0,0-.1.116A6.271,6.271,0,0,1,15.08,16.217ZM22.718,11.1a7.511,7.511,0,0,1-3.482,3q.338-.554.65-1.177a26.029,26.029,0,0,0,2.419-9.448h2.7A15.009,15.009,0,0,1,22.718,11.1Zm0,0"/>
</svg>
