<?xml version="1.0" encoding="iso-8859-1"?>
<!-- Generator: Adobe Illustrator 19.0.0, SVG Export Plug-In . SVG Version: 6.00 Build 0)  -->
<svg version="1.1" id="Capa_1" xmlns="http://www.w3.org/2000/svg" xmlns:xlink="http://www.w3.org/1999/xlink" x="0px" y="0px"
	 viewBox="0 0 484.704 484.704" style="enable-background:new 0 0 484.704 484.704;" xml:space="preserve">
<g>
	<g>
		<path d="M482.352,304V8c0-4.418-3.582-8-8-8h-464c-4.418,0-8,3.582-8,8v296c0,4.418,3.582,8,8,8H122.64L3.88,475.296l12.944,9.408
			L142.424,312h91.928v168h16V312h91.928l125.6,172.704l12.944-9.408L362.064,312h112.288C478.77,312,482.352,308.418,482.352,304z
			 M466.352,296h-448V16h448V296z"/>
	</g>
</g>
<g>
	<g>
		<path d="M158.352,128c-15.464,0-28,12.536-28,28s12.536,28,28,28s28-12.536,28-28S173.816,128,158.352,128z M158.352,168
			c-6.627,0-12-5.373-12-12c0-6.627,5.373-12,12-12c6.627,0,12,5.373,12,12C170.352,162.627,164.979,168,158.352,168z"/>
	</g>
</g>
<g>
	<g>
		<path d="M78.352,208c-15.464,0-28,12.536-28,28c0,15.464,12.536,28,28,28s28-12.536,28-28C106.352,220.536,93.816,208,78.352,208z
			 M78.352,248c-6.627,0-12-5.373-12-12c0-6.627,5.373-12,12-12s12,5.373,12,12C90.352,242.627,84.979,248,78.352,248z"/>
	</g>
</g>
<g>
	<g>
		<path d="M246.352,184c-15.464,0-28,12.536-28,28s12.536,28,28,28s28-12.536,28-28S261.816,184,246.352,184z M246.352,224
			c-6.627,0-12-5.373-12-12c0-6.627,5.373-12,12-12c6.627,0,12,5.373,12,12C258.352,218.627,252.979,224,246.352,224z"/>
	</g>
</g>
<g>
	<g>
		<path d="M326.352,88c-15.464,0-28,12.536-28,28s12.536,28,28,28c15.464,0,28-12.536,28-28S341.816,88,326.352,88z M326.352,128
			c-6.627,0-12-5.373-12-12c0-6.627,5.373-12,12-12c6.627,0,12,5.373,12,12C338.352,122.627,332.979,128,326.352,128z"/>
	</g>
</g>
<g>
	<g>
		<path d="M406.352,48c-15.464,0-28,12.536-28,28s12.536,28,28,28c15.464,0,28-12.536,28-28S421.816,48,406.352,48z M406.352,88
			c-6.627,0-12-5.373-12-12s5.373-12,12-12c6.627,0,12,5.373,12,12S412.979,88,406.352,88z"/>
	</g>
</g>
<g>
	<g>
		<rect x="101.381" y="187.998" transform="matrix(0.7071 -0.7071 0.7071 0.7071 -103.9268 141.0945)" width="33.944" height="16"/>
	</g>
</g>
<g>
	<g>
		<rect x="267.222" y="154.379" transform="matrix(0.6402 -0.7682 0.7682 0.6402 -21.2293 279.4293)" width="40.968" height="16"/>
	</g>
</g>
<g>
	<g>
		<rect x="360.132" y="87.725" transform="matrix(0.8944 -0.4472 0.4472 0.8944 -4.0755 174.1853)" width="13.528" height="16"/>
	</g>
</g>
<g>
	<g>
		<rect x="196.808" y="172.875" transform="matrix(0.5506 -0.8347 0.8347 0.5506 -62.0499 253.9077)" width="16" height="23.424"/>
	</g>
</g>
<g>
</g>
<g>
</g>
<g>
</g>
<g>
</g>
<g>
</g>
<g>
</g>
<g>
</g>
<g>
</g>
<g>
</g>
<g>
</g>
<g>
</g>
<g>
</g>
<g>
</g>
<g>
</g>
<g>
</g>
</svg>
